<svg xmlns="http://www.w3.org/2000/svg" width="1512" height="879" viewBox="0 0 1512 879" fill="none"><g clip-path="url(#clip0_154_2)"><rect width="1512" height="879" fill="white"></rect><ellipse opacity="0.05" cx="1006.83" cy="301.949" rx="370.925" ry="546.968" transform="rotate(-39.7186 1006.83 301.949)" fill="#7339FF"></ellipse><ellipse opacity="0.05" cx="1416.51" cy="147.877" rx="444.475" ry="667" transform="rotate(30 1416.51 147.877)" fill="#FF48B3"></ellipse><rect width="1512" height="879" fill="url(#paint0_linear_154_2)" fill-opacity="0.2"></rect><path opacity="0.5" d="M1275.86 44.3433C1351.97 135.963 1395.68 239.813 1404.84 333.636C1414 427.463 1388.61 511.203 1326.59 562.719C1264.58 614.236 1177.61 623.849 1087.05 597.645C996.496 571.442 902.417 509.436 826.303 417.817C750.189 326.198 706.48 222.347 697.321 128.524C688.161 34.6976 713.555 -49.0427 775.566 -100.559C837.577 -152.076 924.553 -161.688 1015.11 -135.485C1105.66 -109.282 1199.74 -47.2759 1275.86 44.3433Z" stroke="white"></path></g><defs><linearGradient id="paint0_linear_154_2" x1="292.5" y1="176.131" x2="1431.96" y2="738.582" gradientUnits="userSpaceOnUse"><stop stop-color="#672CFF"></stop><stop offset="1" stop-color="#FF48B3"></stop></linearGradient><clipPath id="clip0_154_2"><rect width="1512" height="879" fill="white"></rect></clipPath></defs></svg>